<svg class="rich-terminal" viewBox="0 0 1360 782.0" xmlns="http://www.w3.org/2000/svg">
    <!-- Generated with Rich https://www.textualize.io -->
    <style>

    @font-face {
        font-family: "Fira Code";
        src: local("FiraCode-Regular"),
                url("https://cdnjs.cloudflare.com/ajax/libs/firacode/6.2.0/woff2/FiraCode-Regular.woff2") format("woff2"),
                url("https://cdnjs.cloudflare.com/ajax/libs/firacode/6.2.0/woff/FiraCode-Regular.woff") format("woff");
        font-style: normal;
        font-weight: 400;
    }
    @font-face {
        font-family: "Fira Code";
        src: local("FiraCode-Bold"),
                url("https://cdnjs.cloudflare.com/ajax/libs/firacode/6.2.0/woff2/FiraCode-Bold.woff2") format("woff2"),
                url("https://cdnjs.cloudflare.com/ajax/libs/firacode/6.2.0/woff/FiraCode-Bold.woff") format("woff");
        font-style: bold;
        font-weight: 700;
    }

    .terminal-3070412396-matrix {
        font-family: Fira Code, monospace;
        font-size: 20px;
        line-height: 24.4px;
        font-variant-east-asian: full-width;
    }

    .terminal-3070412396-title {
        font-size: 18px;
        font-weight: bold;
        font-family: arial;
    }

    .terminal-3070412396-r1 { fill: #c5c8c6 }
.terminal-3070412396-r2 { fill: #737373;font-weight: bold }
.terminal-3070412396-r3 { fill: #6c6c6c }
.terminal-3070412396-r4 { fill: #303030 }
.terminal-3070412396-r5 { fill: #121212 }
.terminal-3070412396-r6 { fill: #787878 }
.terminal-3070412396-r7 { fill: #6f6f6f }
.terminal-3070412396-r8 { fill: #e0e0e0 }
.terminal-3070412396-r9 { fill: #a0a0a0 }
    </style>

    <defs>
    <clipPath id="terminal-3070412396-clip-terminal">
      <rect x="0" y="0" width="1341.0" height="731.0" />
    </clipPath>
    <clipPath id="terminal-3070412396-line-0">
    <rect x="0" y="1.5" width="1342" height="24.65"/>
            </clipPath>
<clipPath id="terminal-3070412396-line-1">
    <rect x="0" y="25.9" width="1342" height="24.65"/>
            </clipPath>
<clipPath id="terminal-3070412396-line-2">
    <rect x="0" y="50.3" width="1342" height="24.65"/>
            </clipPath>
<clipPath id="terminal-3070412396-line-3">
    <rect x="0" y="74.7" width="1342" height="24.65"/>
            </clipPath>
<clipPath id="terminal-3070412396-line-4">
    <rect x="0" y="99.1" width="1342" height="24.65"/>
            </clipPath>
<clipPath id="terminal-3070412396-line-5">
    <rect x="0" y="123.5" width="1342" height="24.65"/>
            </clipPath>
<clipPath id="terminal-3070412396-line-6">
    <rect x="0" y="147.9" width="1342" height="24.65"/>
            </clipPath>
<clipPath id="terminal-3070412396-line-7">
    <rect x="0" y="172.3" width="1342" height="24.65"/>
            </clipPath>
<clipPath id="terminal-3070412396-line-8">
    <rect x="0" y="196.7" width="1342" height="24.65"/>
            </clipPath>
<clipPath id="terminal-3070412396-line-9">
    <rect x="0" y="221.1" width="1342" height="24.65"/>
            </clipPath>
<clipPath id="terminal-3070412396-line-10">
    <rect x="0" y="245.5" width="1342" height="24.65"/>
            </clipPath>
<clipPath id="terminal-3070412396-line-11">
    <rect x="0" y="269.9" width="1342" height="24.65"/>
            </clipPath>
<clipPath id="terminal-3070412396-line-12">
    <rect x="0" y="294.3" width="1342" height="24.65"/>
            </clipPath>
<clipPath id="terminal-3070412396-line-13">
    <rect x="0" y="318.7" width="1342" height="24.65"/>
            </clipPath>
<clipPath id="terminal-3070412396-line-14">
    <rect x="0" y="343.1" width="1342" height="24.65"/>
            </clipPath>
<clipPath id="terminal-3070412396-line-15">
    <rect x="0" y="367.5" width="1342" height="24.65"/>
            </clipPath>
<clipPath id="terminal-3070412396-line-16">
    <rect x="0" y="391.9" width="1342" height="24.65"/>
            </clipPath>
<clipPath id="terminal-3070412396-line-17">
    <rect x="0" y="416.3" width="1342" height="24.65"/>
            </clipPath>
<clipPath id="terminal-3070412396-line-18">
    <rect x="0" y="440.7" width="1342" height="24.65"/>
            </clipPath>
<clipPath id="terminal-3070412396-line-19">
    <rect x="0" y="465.1" width="1342" height="24.65"/>
            </clipPath>
<clipPath id="terminal-3070412396-line-20">
    <rect x="0" y="489.5" width="1342" height="24.65"/>
            </clipPath>
<clipPath id="terminal-3070412396-line-21">
    <rect x="0" y="513.9" width="1342" height="24.65"/>
            </clipPath>
<clipPath id="terminal-3070412396-line-22">
    <rect x="0" y="538.3" width="1342" height="24.65"/>
            </clipPath>
<clipPath id="terminal-3070412396-line-23">
    <rect x="0" y="562.7" width="1342" height="24.65"/>
            </clipPath>
<clipPath id="terminal-3070412396-line-24">
    <rect x="0" y="587.1" width="1342" height="24.65"/>
            </clipPath>
<clipPath id="terminal-3070412396-line-25">
    <rect x="0" y="611.5" width="1342" height="24.65"/>
            </clipPath>
<clipPath id="terminal-3070412396-line-26">
    <rect x="0" y="635.9" width="1342" height="24.65"/>
            </clipPath>
<clipPath id="terminal-3070412396-line-27">
    <rect x="0" y="660.3" width="1342" height="24.65"/>
            </clipPath>
<clipPath id="terminal-3070412396-line-28">
    <rect x="0" y="684.7" width="1342" height="24.65"/>
            </clipPath>
    </defs>

    <rect fill="#292929" stroke="rgba(255,255,255,0.35)" stroke-width="1" x="1" y="1" width="1358" height="780" rx="8"/><text class="terminal-3070412396-title" fill="#c5c8c6" text-anchor="middle" x="679" y="27">CodeShell</text>
            <g transform="translate(26,22)">
            <circle cx="0" cy="0" r="7" fill="#ff5f57"/>
            <circle cx="22" cy="0" r="7" fill="#febc2e"/>
            <circle cx="44" cy="0" r="7" fill="#28c840"/>
            </g>
        
    <g transform="translate(9, 41)" clip-path="url(#terminal-3070412396-clip-terminal)">
    <rect fill="#121212" x="0" y="1.5" width="12.2" height="24.65" shape-rendering="crispEdges"/><rect fill="#121212" x="12.2" y="1.5" width="122" height="24.65" shape-rendering="crispEdges"/><rect fill="#121212" x="134.2" y="1.5" width="170.8" height="24.65" shape-rendering="crispEdges"/><rect fill="#121212" x="305" y="1.5" width="1024.8" height="24.65" shape-rendering="crispEdges"/><rect fill="#121212" x="1329.8" y="1.5" width="12.2" height="24.65" shape-rendering="crispEdges"/><rect fill="#121212" x="0" y="25.9" width="12.2" height="24.65" shape-rendering="crispEdges"/><rect fill="#121212" x="12.2" y="25.9" width="122" height="24.65" shape-rendering="crispEdges"/><rect fill="#121212" x="134.2" y="25.9" width="170.8" height="24.65" shape-rendering="crispEdges"/><rect fill="#121212" x="305" y="25.9" width="1024.8" height="24.65" shape-rendering="crispEdges"/><rect fill="#121212" x="1329.8" y="25.9" width="12.2" height="24.65" shape-rendering="crispEdges"/><rect fill="#121212" x="0" y="50.3" width="12.2" height="24.65" shape-rendering="crispEdges"/><rect fill="#121212" x="12.2" y="50.3" width="122" height="24.65" shape-rendering="crispEdges"/><rect fill="#121212" x="134.2" y="50.3" width="280.6" height="24.65" shape-rendering="crispEdges"/><rect fill="#121212" x="414.8" y="50.3" width="915" height="24.65" shape-rendering="crispEdges"/><rect fill="#121212" x="1329.8" y="50.3" width="12.2" height="24.65" shape-rendering="crispEdges"/><rect fill="#121212" x="0" y="74.7" width="12.2" height="24.65" shape-rendering="crispEdges"/><rect fill="#121212" x="12.2" y="74.7" width="1317.6" height="24.65" shape-rendering="crispEdges"/><rect fill="#121212" x="1329.8" y="74.7" width="12.2" height="24.65" shape-rendering="crispEdges"/><rect fill="#121212" x="0" y="99.1" width="12.2" height="24.65" shape-rendering="crispEdges"/><rect fill="#121212" x="12.2" y="99.1" width="1317.6" height="24.65" shape-rendering="crispEdges"/><rect fill="#121212" x="1329.8" y="99.1" width="12.2" height="24.65" shape-rendering="crispEdges"/><rect fill="#121212" x="0" y="123.5" width="12.2" height="24.65" shape-rendering="crispEdges"/><rect fill="#121212" x="12.2" y="123.5" width="1317.6" height="24.65" shape-rendering="crispEdges"/><rect fill="#121212" x="1329.8" y="123.5" width="12.2" height="24.65" shape-rendering="crispEdges"/><rect fill="#121212" x="0" y="147.9" width="12.2" height="24.65" shape-rendering="crispEdges"/><rect fill="#121212" x="12.2" y="147.9" width="1317.6" height="24.65" shape-rendering="crispEdges"/><rect fill="#121212" x="1329.8" y="147.9" width="12.2" height="24.65" shape-rendering="crispEdges"/><rect fill="#121212" x="0" y="172.3" width="12.2" height="24.65" shape-rendering="crispEdges"/><rect fill="#121212" x="12.2" y="172.3" width="1317.6" height="24.65" shape-rendering="crispEdges"/><rect fill="#121212" x="1329.8" y="172.3" width="12.2" height="24.65" shape-rendering="crispEdges"/><rect fill="#121212" x="0" y="196.7" width="12.2" height="24.65" shape-rendering="crispEdges"/><rect fill="#121212" x="12.2" y="196.7" width="1317.6" height="24.65" shape-rendering="crispEdges"/><rect fill="#121212" x="1329.8" y="196.7" width="12.2" height="24.65" shape-rendering="crispEdges"/><rect fill="#121212" x="0" y="221.1" width="12.2" height="24.65" shape-rendering="crispEdges"/><rect fill="#121212" x="12.2" y="221.1" width="1317.6" height="24.65" shape-rendering="crispEdges"/><rect fill="#121212" x="1329.8" y="221.1" width="12.2" height="24.65" shape-rendering="crispEdges"/><rect fill="#121212" x="0" y="245.5" width="12.2" height="24.65" shape-rendering="crispEdges"/><rect fill="#121212" x="12.2" y="245.5" width="1317.6" height="24.65" shape-rendering="crispEdges"/><rect fill="#121212" x="1329.8" y="245.5" width="12.2" height="24.65" shape-rendering="crispEdges"/><rect fill="#121212" x="0" y="269.9" width="12.2" height="24.65" shape-rendering="crispEdges"/><rect fill="#121212" x="12.2" y="269.9" width="1317.6" height="24.65" shape-rendering="crispEdges"/><rect fill="#121212" x="1329.8" y="269.9" width="12.2" height="24.65" shape-rendering="crispEdges"/><rect fill="#121212" x="0" y="294.3" width="12.2" height="24.65" shape-rendering="crispEdges"/><rect fill="#121212" x="12.2" y="294.3" width="1317.6" height="24.65" shape-rendering="crispEdges"/><rect fill="#121212" x="1329.8" y="294.3" width="12.2" height="24.65" shape-rendering="crispEdges"/><rect fill="#121212" x="0" y="318.7" width="12.2" height="24.65" shape-rendering="crispEdges"/><rect fill="#121212" x="12.2" y="318.7" width="1317.6" height="24.65" shape-rendering="crispEdges"/><rect fill="#121212" x="1329.8" y="318.7" width="12.2" height="24.65" shape-rendering="crispEdges"/><rect fill="#121212" x="0" y="343.1" width="12.2" height="24.65" shape-rendering="crispEdges"/><rect fill="#121212" x="12.2" y="343.1" width="1317.6" height="24.65" shape-rendering="crispEdges"/><rect fill="#121212" x="1329.8" y="343.1" width="12.2" height="24.65" shape-rendering="crispEdges"/><rect fill="#121212" x="0" y="367.5" width="12.2" height="24.65" shape-rendering="crispEdges"/><rect fill="#121212" x="12.2" y="367.5" width="1317.6" height="24.65" shape-rendering="crispEdges"/><rect fill="#121212" x="1329.8" y="367.5" width="12.2" height="24.65" shape-rendering="crispEdges"/><rect fill="#121212" x="0" y="391.9" width="12.2" height="24.65" shape-rendering="crispEdges"/><rect fill="#121212" x="12.2" y="391.9" width="1317.6" height="24.65" shape-rendering="crispEdges"/><rect fill="#121212" x="1329.8" y="391.9" width="12.2" height="24.65" shape-rendering="crispEdges"/><rect fill="#121212" x="0" y="416.3" width="12.2" height="24.65" shape-rendering="crispEdges"/><rect fill="#121212" x="12.2" y="416.3" width="1317.6" height="24.65" shape-rendering="crispEdges"/><rect fill="#121212" x="1329.8" y="416.3" width="12.2" height="24.65" shape-rendering="crispEdges"/><rect fill="#121212" x="0" y="440.7" width="12.2" height="24.65" shape-rendering="crispEdges"/><rect fill="#121212" x="12.2" y="440.7" width="1317.6" height="24.65" shape-rendering="crispEdges"/><rect fill="#121212" x="1329.8" y="440.7" width="12.2" height="24.65" shape-rendering="crispEdges"/><rect fill="#121212" x="0" y="465.1" width="12.2" height="24.65" shape-rendering="crispEdges"/><rect fill="#121212" x="12.2" y="465.1" width="1317.6" height="24.65" shape-rendering="crispEdges"/><rect fill="#121212" x="1329.8" y="465.1" width="12.2" height="24.65" shape-rendering="crispEdges"/><rect fill="#121212" x="0" y="489.5" width="12.2" height="24.65" shape-rendering="crispEdges"/><rect fill="#121212" x="12.2" y="489.5" width="1317.6" height="24.65" shape-rendering="crispEdges"/><rect fill="#121212" x="1329.8" y="489.5" width="12.2" height="24.65" shape-rendering="crispEdges"/><rect fill="#121212" x="0" y="513.9" width="12.2" height="24.65" shape-rendering="crispEdges"/><rect fill="#121212" x="12.2" y="513.9" width="1317.6" height="24.65" shape-rendering="crispEdges"/><rect fill="#121212" x="1329.8" y="513.9" width="12.2" height="24.65" shape-rendering="crispEdges"/><rect fill="#121212" x="0" y="538.3" width="12.2" height="24.65" shape-rendering="crispEdges"/><rect fill="#121212" x="12.2" y="538.3" width="1317.6" height="24.65" shape-rendering="crispEdges"/><rect fill="#121212" x="1329.8" y="538.3" width="12.2" height="24.65" shape-rendering="crispEdges"/><rect fill="#121212" x="0" y="562.7" width="12.2" height="24.65" shape-rendering="crispEdges"/><rect fill="#121212" x="12.2" y="562.7" width="1317.6" height="24.65" shape-rendering="crispEdges"/><rect fill="#121212" x="1329.8" y="562.7" width="12.2" height="24.65" shape-rendering="crispEdges"/><rect fill="#121212" x="0" y="587.1" width="12.2" height="24.65" shape-rendering="crispEdges"/><rect fill="#121212" x="12.2" y="587.1" width="1317.6" height="24.65" shape-rendering="crispEdges"/><rect fill="#121212" x="1329.8" y="587.1" width="12.2" height="24.65" shape-rendering="crispEdges"/><rect fill="#121212" x="0" y="611.5" width="12.2" height="24.65" shape-rendering="crispEdges"/><rect fill="#121212" x="12.2" y="611.5" width="1317.6" height="24.65" shape-rendering="crispEdges"/><rect fill="#121212" x="1329.8" y="611.5" width="12.2" height="24.65" shape-rendering="crispEdges"/><rect fill="#121212" x="0" y="635.9" width="1342" height="24.65" shape-rendering="crispEdges"/><rect fill="#121212" x="0" y="660.3" width="12.2" height="24.65" shape-rendering="crispEdges"/><rect fill="#1e1e1e" x="12.2" y="660.3" width="12.2" height="24.65" shape-rendering="crispEdges"/><rect fill="#e0e0e0" x="24.4" y="660.3" width="12.2" height="24.65" shape-rendering="crispEdges"/><rect fill="#1e1e1e" x="36.6" y="660.3" width="195.2" height="24.65" shape-rendering="crispEdges"/><rect fill="#1e1e1e" x="231.8" y="660.3" width="1085.8" height="24.65" shape-rendering="crispEdges"/><rect fill="#1e1e1e" x="1317.6" y="660.3" width="12.2" height="24.65" shape-rendering="crispEdges"/><rect fill="#121212" x="1329.8" y="660.3" width="12.2" height="24.65" shape-rendering="crispEdges"/><rect fill="#121212" x="0" y="684.7" width="12.2" height="24.65" shape-rendering="crispEdges"/><rect fill="#121212" x="12.2" y="684.7" width="1317.6" height="24.65" shape-rendering="crispEdges"/><rect fill="#121212" x="1329.8" y="684.7" width="12.2" height="24.65" shape-rendering="crispEdges"/><rect fill="#121212" x="0" y="709.1" width="12.2" height="24.65" shape-rendering="crispEdges"/><rect fill="#121212" x="12.2" y="709.1" width="12.2" height="24.65" shape-rendering="crispEdges"/><rect fill="#121212" x="24.4" y="709.1" width="12.2" height="24.65" shape-rendering="crispEdges"/><rect fill="#121212" x="36.6" y="709.1" width="85.4" height="24.65" shape-rendering="crispEdges"/><rect fill="#121212" x="122" y="709.1" width="12.2" height="24.65" shape-rendering="crispEdges"/><rect fill="#121212" x="134.2" y="709.1" width="12.2" height="24.65" shape-rendering="crispEdges"/><rect fill="#121212" x="146.4" y="709.1" width="0" height="24.65" shape-rendering="crispEdges"/><rect fill="#121212" x="146.4" y="709.1" width="12.2" height="24.65" shape-rendering="crispEdges"/><rect fill="#121212" x="158.6" y="709.1" width="988.2" height="24.65" shape-rendering="crispEdges"/><rect fill="#121212" x="1146.8" y="709.1" width="170.8" height="24.65" shape-rendering="crispEdges"/><rect fill="#121212" x="1317.6" y="709.1" width="12.2" height="24.65" shape-rendering="crispEdges"/><rect fill="#121212" x="1329.8" y="709.1" width="12.2" height="24.65" shape-rendering="crispEdges"/>
    <g class="terminal-3070412396-matrix">
    <text class="terminal-3070412396-r2" x="12.2" y="20" textLength="122" clip-path="url(#terminal-3070412396-line-0)">&#160;/\_/\&#160;&#160;&#160;&#160;</text><text class="terminal-3070412396-r3" x="134.2" y="20" textLength="170.8" clip-path="url(#terminal-3070412396-line-0)">CodeShell&#160;v0.2.0</text><text class="terminal-3070412396-r1" x="1342" y="20" textLength="12.2" clip-path="url(#terminal-3070412396-line-0)">
</text><text class="terminal-3070412396-r2" x="12.2" y="44.4" textLength="122" clip-path="url(#terminal-3070412396-line-1)">(&#160;o.o&#160;)&#160;&#160;&#160;</text><text class="terminal-3070412396-r3" x="134.2" y="44.4" textLength="170.8" clip-path="url(#terminal-3070412396-line-1)">deepseek-flash</text><text class="terminal-3070412396-r1" x="1342" y="44.4" textLength="12.2" clip-path="url(#terminal-3070412396-line-1)">
</text><text class="terminal-3070412396-r2" x="12.2" y="68.8" textLength="122" clip-path="url(#terminal-3070412396-line-2)">&#160;&gt;&#160;^&#160;&lt;&#160;&#160;&#160;&#160;</text><text class="terminal-3070412396-r3" x="134.2" y="68.8" textLength="280.6" clip-path="url(#terminal-3070412396-line-2)">/workspace/demo-project</text><text class="terminal-3070412396-r1" x="1342" y="68.8" textLength="12.2" clip-path="url(#terminal-3070412396-line-2)">
</text><text class="terminal-3070412396-r1" x="1342" y="93.2" textLength="12.2" clip-path="url(#terminal-3070412396-line-3)">
</text><text class="terminal-3070412396-r1" x="1342" y="117.6" textLength="12.2" clip-path="url(#terminal-3070412396-line-4)">
</text><text class="terminal-3070412396-r1" x="1342" y="142" textLength="12.2" clip-path="url(#terminal-3070412396-line-5)">
</text><text class="terminal-3070412396-r1" x="1342" y="166.4" textLength="12.2" clip-path="url(#terminal-3070412396-line-6)">
</text><text class="terminal-3070412396-r1" x="1342" y="190.8" textLength="12.2" clip-path="url(#terminal-3070412396-line-7)">
</text><text class="terminal-3070412396-r1" x="1342" y="215.2" textLength="12.2" clip-path="url(#terminal-3070412396-line-8)">
</text><text class="terminal-3070412396-r1" x="1342" y="239.6" textLength="12.2" clip-path="url(#terminal-3070412396-line-9)">
</text><text class="terminal-3070412396-r1" x="1342" y="264" textLength="12.2" clip-path="url(#terminal-3070412396-line-10)">
</text><text class="terminal-3070412396-r1" x="1342" y="288.4" textLength="12.2" clip-path="url(#terminal-3070412396-line-11)">
</text><text class="terminal-3070412396-r1" x="1342" y="312.8" textLength="12.2" clip-path="url(#terminal-3070412396-line-12)">
</text><text class="terminal-3070412396-r1" x="1342" y="337.2" textLength="12.2" clip-path="url(#terminal-3070412396-line-13)">
</text><text class="terminal-3070412396-r1" x="1342" y="361.6" textLength="12.2" clip-path="url(#terminal-3070412396-line-14)">
</text><text class="terminal-3070412396-r1" x="1342" y="386" textLength="12.2" clip-path="url(#terminal-3070412396-line-15)">
</text><text class="terminal-3070412396-r1" x="1342" y="410.4" textLength="12.2" clip-path="url(#terminal-3070412396-line-16)">
</text><text class="terminal-3070412396-r1" x="1342" y="434.8" textLength="12.2" clip-path="url(#terminal-3070412396-line-17)">
</text><text class="terminal-3070412396-r1" x="1342" y="459.2" textLength="12.2" clip-path="url(#terminal-3070412396-line-18)">
</text><text class="terminal-3070412396-r1" x="1342" y="483.6" textLength="12.2" clip-path="url(#terminal-3070412396-line-19)">
</text><text class="terminal-3070412396-r1" x="1342" y="508" textLength="12.2" clip-path="url(#terminal-3070412396-line-20)">
</text><text class="terminal-3070412396-r1" x="1342" y="532.4" textLength="12.2" clip-path="url(#terminal-3070412396-line-21)">
</text><text class="terminal-3070412396-r1" x="1342" y="556.8" textLength="12.2" clip-path="url(#terminal-3070412396-line-22)">
</text><text class="terminal-3070412396-r1" x="1342" y="581.2" textLength="12.2" clip-path="url(#terminal-3070412396-line-23)">
</text><text class="terminal-3070412396-r1" x="1342" y="605.6" textLength="12.2" clip-path="url(#terminal-3070412396-line-24)">
</text><text class="terminal-3070412396-r1" x="1342" y="630" textLength="12.2" clip-path="url(#terminal-3070412396-line-25)">
</text><text class="terminal-3070412396-r4" x="0" y="654.4" textLength="1342" clip-path="url(#terminal-3070412396-line-26)">──────────────────────────────────────────────────────────────────────────────────────────────────────────────</text><text class="terminal-3070412396-r1" x="1342" y="654.4" textLength="12.2" clip-path="url(#terminal-3070412396-line-26)">
</text><text class="terminal-3070412396-r5" x="24.4" y="678.8" textLength="12.2" clip-path="url(#terminal-3070412396-line-27)">S</text><text class="terminal-3070412396-r6" x="36.6" y="678.8" textLength="195.2" clip-path="url(#terminal-3070412396-line-27)">end&#160;a&#160;message...</text><text class="terminal-3070412396-r1" x="1342" y="678.8" textLength="12.2" clip-path="url(#terminal-3070412396-line-27)">
</text><text class="terminal-3070412396-r4" x="12.2" y="703.2" textLength="1317.6" clip-path="url(#terminal-3070412396-line-28)">────────────────────────────────────────────────────────────────────────────────────────────────────────────</text><text class="terminal-3070412396-r1" x="1342" y="703.2" textLength="12.2" clip-path="url(#terminal-3070412396-line-28)">
</text><text class="terminal-3070412396-r7" x="36.6" y="727.6" textLength="85.4" clip-path="url(#terminal-3070412396-line-29)">default</text><text class="terminal-3070412396-r9" x="1146.8" y="727.6" textLength="170.8" clip-path="url(#terminal-3070412396-line-29)">deepseek-flash</text>
    </g>
    </g>
</svg>
